<?xml version="1.0" encoding="UTF-8" ?>
<!DOCTYPE svg PUBLIC "-//W3C//DTD SVG 1.1//EN" "http://www.w3.org/Graphics/SVG/1.1/DTD/svg11.dtd">
<svg width="954pt" height="265pt" viewBox="0 0 954 265" version="1.1" xmlns="http://www.w3.org/2000/svg">
<g id="#718b97ff">
<path fill="#718b97" opacity="1.00" d=" M 414.41 42.99 C 430.63 33.80 453.42 35.58 470.88 42.12 C 484.14 47.82 492.79 62.41 490.50 76.84 C 487.67 95.62 476.65 112.28 463.39 125.45 C 448.37 139.73 431.60 152.97 412.54 161.35 C 405.42 165.17 400.25 156.79 402.74 150.54 C 409.44 125.88 428.76 107.72 444.43 88.49 C 449.57 81.63 454.63 71.75 449.42 63.56 C 441.32 51.37 423.79 53.33 414.41 42.99 Z" />
<path fill="#718b97" opacity="1.00" d=" M 74.12 47.25 C 81.03 44.94 90.05 51.28 87.84 58.93 C 85.35 67.77 71.40 68.68 67.38 60.62 C 64.55 55.23 68.45 48.52 74.12 47.25 Z" />
<path fill="#718b97" opacity="1.00" d=" M 365.07 47.24 C 372.04 44.97 380.91 51.18 378.86 58.91 C 376.37 67.79 362.34 68.68 358.33 60.56 C 355.58 55.21 359.46 48.54 365.07 47.24 Z" />
<path fill="#718b97" opacity="1.00" d=" M 389.43 47.49 C 400.88 42.02 410.79 60.48 398.23 65.25 C 386.11 71.96 375.65 51.94 389.43 47.49 Z" />
<path fill="#718b97" opacity="1.00" d=" M 173.43 84.11 C 182.97 67.95 209.73 67.44 220.25 82.78 C 227.96 94.83 228.28 110.98 222.87 123.98 C 215.62 140.60 191.73 143.82 178.41 132.79 C 173.48 137.33 166.42 138.25 159.99 137.97 C 142.15 137.70 124.26 138.50 106.45 137.55 C 107.56 147.20 103.95 158.53 94.09 162.12 C 80.32 166.90 64.66 164.90 51.57 158.89 C 51.78 138.03 50.90 117.02 52.01 96.25 C 58.43 96.94 65.85 95.01 71.67 97.18 C 71.80 114.20 71.69 131.23 71.73 148.26 C 76.43 149.89 84.78 150.65 85.87 144.13 C 86.49 120.58 85.47 96.83 86.37 73.38 C 92.86 72.57 99.61 73.26 106.20 73.04 C 106.81 88.53 106.39 104.08 106.41 119.60 C 124.52 121.14 142.81 119.84 160.99 120.29 C 164.01 120.43 169.35 120.46 168.77 116.04 C 167.68 105.31 167.23 93.51 173.43 84.11 M 194.46 86.49 C 185.11 93.29 188.05 107.97 189.81 117.92 C 191.53 127.26 205.53 125.38 205.57 116.16 C 206.35 106.46 209.98 84.23 194.46 86.49 Z" />
<path fill="#718b97" opacity="1.00" d=" M 267.46 73.56 C 279.04 69.92 294.81 70.85 301.49 82.53 C 307.21 94.25 303.79 107.74 304.74 120.26 C 324.82 120.27 344.90 120.30 364.98 120.25 C 368.80 120.41 371.51 116.87 371.40 113.25 C 371.87 99.86 371.07 86.42 371.80 73.04 C 378.29 73.00 384.79 73.09 391.29 72.99 C 392.23 88.50 391.58 104.18 391.62 119.76 C 391.05 130.76 380.23 137.48 370.06 137.76 C 348.32 138.23 326.55 137.84 304.80 137.96 C 305.30 165.85 269.15 170.21 250.09 158.66 C 252.50 154.09 253.46 148.43 257.05 144.67 C 265.73 150.06 284.97 152.91 284.61 137.96 C 277.54 137.95 270.10 138.60 263.55 135.39 C 239.41 124.06 241.97 81.69 267.46 73.56 M 271.13 89.12 C 263.82 100.49 265.49 125.46 284.52 120.27 C 284.14 110.49 285.31 100.55 283.86 90.86 C 282.75 84.80 274.25 84.59 271.13 89.12 Z" />
</g>
<g id="#ff6633ff">
<path fill="#ff6633" opacity="1.00" d=" M 490.50 76.84 C 505.93 62.65 522.61 48.94 541.96 40.52 C 547.82 36.94 554.33 42.59 552.51 48.93 C 546.80 80.55 515.76 98.57 503.60 126.62 C 500.44 149.08 530.05 146.65 540.56 159.05 C 523.25 167.69 499.69 166.60 481.99 158.32 C 469.90 152.11 462.13 138.43 464.51 124.79 L 463.39 125.45 C 476.65 112.28 487.67 95.62 490.50 76.84 Z" />
<path fill="#ff6633" opacity="1.00" d=" M 744.05 50.95 C 755.01 38.73 774.82 39.49 787.93 47.71 C 785.57 52.95 784.89 64.30 777.12 57.85 C 765.65 49.93 748.05 65.11 760.80 75.24 C 777.01 82.75 797.59 96.78 789.19 117.75 C 802.80 117.72 816.41 117.81 830.02 117.71 C 833.54 117.81 836.61 115.06 836.61 111.46 C 836.96 98.22 836.60 84.96 836.79 71.72 C 843.42 71.57 850.24 70.94 856.78 72.02 C 855.74 88.94 858.86 106.41 854.93 122.95 C 849.46 135.53 833.60 135.38 822.00 135.00 C 806.40 134.05 790.11 137.39 775.07 132.17 C 757.83 137.06 739.65 134.24 722.00 135.00 C 711.02 134.64 699.52 136.48 689.15 131.89 C 678.01 138.45 664.21 136.66 652.19 133.94 C 645.34 136.47 637.95 136.64 630.77 135.99 C 633.18 151.71 617.05 161.55 603.12 160.89 C 588.65 161.06 574.04 159.84 560.13 155.65 C 559.80 135.34 560.13 115.01 559.97 94.69 C 566.28 93.99 573.16 93.89 579.30 94.70 C 580.42 110.90 579.33 127.76 579.84 144.21 C 589.41 144.79 605.11 150.78 610.41 139.98 C 611.23 117.28 610.47 94.46 610.79 71.72 C 617.42 71.57 624.24 70.95 630.77 72.01 C 630.69 87.49 630.82 102.97 630.71 118.45 C 635.10 119.82 642.70 120.69 644.18 114.92 C 645.24 100.59 643.64 85.85 644.97 71.66 C 651.37 71.40 657.81 71.35 664.21 71.72 C 664.32 87.33 664.19 102.95 664.27 118.57 C 668.75 119.68 676.05 120.68 677.78 115.01 C 678.29 100.64 677.85 86.21 678.01 71.81 C 684.63 71.29 691.37 71.29 697.99 71.81 C 698.12 84.91 697.76 98.02 698.17 111.11 C 698.17 115.18 702.02 118.25 705.98 117.76 C 724.95 117.40 743.99 118.47 762.92 117.14 C 769.39 117.24 772.73 108.94 769.04 104.03 C 763.08 95.38 751.24 94.34 744.39 86.62 C 734.20 77.55 734.85 60.47 744.05 50.95 Z" />
<path fill="#ff6633" opacity="1.00" d=" M 881.22 44.03 C 887.75 42.93 894.58 43.57 901.21 43.72 C 901.16 74.10 901.51 104.51 901.04 134.88 C 894.70 135.16 888.35 134.89 882.01 135.04 C 880.21 104.99 881.79 74.32 881.22 44.03 Z" />
<path fill="#ff6633" opacity="1.00" d=" M 814.51 148.68 C 821.18 145.87 830.43 151.40 828.99 159.11 C 827.57 167.44 815.64 169.58 810.30 163.68 C 805.58 159.08 808.44 150.48 814.51 148.68 Z" />
<path fill="#ff6633" opacity="1.00" d=" M 839.47 148.55 C 846.02 146.13 854.91 151.44 853.49 158.98 C 852.21 167.91 838.91 169.70 834.01 162.77 C 830.27 157.77 833.58 150.01 839.47 148.55 Z" />
</g>
<g id="#a2b6c3ff">
<path fill="#a2b6c3" opacity="1.00" d=" M 223.59 172.71 C 249.14 164.19 270.57 198.06 252.74 217.66 C 241.95 231.13 218.42 230.55 208.34 216.53 C 196.64 201.84 204.73 176.46 223.59 172.71 M 226.60 178.66 C 212.69 181.96 205.70 200.20 214.20 211.83 C 221.83 224.84 242.54 223.53 248.87 210.01 C 257.96 195.51 243.37 174.28 226.60 178.66 Z" />
<path fill="#a2b6c3" opacity="1.00" d=" M 651.64 183.52 C 661.60 168.95 685.49 167.92 697.29 180.67 C 702.32 184.99 691.68 189.96 689.95 183.75 C 675.40 168.51 648.02 186.49 655.44 205.99 C 659.44 221.29 681.04 226.38 691.42 214.42 C 693.70 210.76 696.97 214.25 699.26 216.00 C 691.69 228.03 674.47 229.75 662.18 224.80 C 646.91 218.18 642.46 196.73 651.64 183.52 Z" />
<path fill="#a2b6c3" opacity="1.00" d=" M 763.58 172.72 C 789.14 164.18 810.58 198.07 792.74 217.67 C 781.95 231.12 758.42 230.55 748.34 216.53 C 736.64 201.85 744.73 176.47 763.58 172.72 M 766.60 178.66 C 752.69 181.97 745.70 200.21 754.20 211.83 C 761.84 224.85 782.55 223.52 788.88 210.00 C 797.96 195.50 783.36 174.28 766.60 178.66 Z" />
<path fill="#a2b6c3" opacity="1.00" d=" M 52.10 173.37 C 54.94 173.23 57.78 173.26 60.62 173.28 C 64.27 179.45 68.21 185.45 71.79 191.68 C 75.74 185.61 79.32 179.31 83.26 173.23 C 85.99 173.28 88.72 173.26 91.45 173.27 C 87.22 182.17 81.19 190.20 76.29 198.78 C 81.51 207.94 87.82 216.53 92.49 225.96 C 89.72 226.01 86.95 226.00 84.19 226.00 C 79.95 219.41 76.23 212.46 71.68 206.09 C 67.88 212.83 63.53 219.24 59.67 225.94 C 56.91 226.02 54.14 226.01 51.37 225.99 C 55.77 216.47 62.36 207.95 67.45 198.72 C 62.36 190.26 56.83 182.04 52.10 173.37 Z" />
<path fill="#a2b6c3" opacity="1.00" d=" M 131.21 173.34 C 141.32 173.18 151.43 173.29 161.54 173.29 C 161.48 175.28 161.44 177.27 161.45 179.27 C 157.64 179.26 153.83 179.28 150.03 179.24 C 149.96 194.83 150.02 210.41 150.00 226.00 C 147.58 226.00 145.15 226.00 142.73 226.00 C 142.73 210.42 142.74 194.85 142.73 179.27 C 138.91 179.27 135.09 179.25 131.28 179.28 C 131.27 177.30 131.26 175.32 131.21 173.34 Z" />
<path fill="#a2b6c3" opacity="1.00" d=" M 310.01 173.21 C 311.14 173.26 312.27 173.30 313.41 173.33 C 319.99 186.82 326.47 200.36 333.22 213.76 C 339.67 200.17 346.43 186.72 353.18 173.26 C 353.84 173.24 355.18 173.20 355.85 173.19 C 358.37 190.78 360.95 208.38 363.35 225.99 C 361.07 225.85 358.62 226.36 356.45 225.72 C 354.71 214.46 353.27 203.14 351.53 191.88 C 346.06 203.32 340.29 214.61 334.75 226.02 C 333.59 225.99 332.43 225.96 331.28 225.93 C 325.72 214.63 320.43 203.17 314.56 192.04 C 313.40 203.39 311.66 214.68 310.31 226.01 C 307.85 226.00 305.38 226.00 302.92 226.00 C 305.20 208.39 307.56 190.80 310.01 173.21 Z" />
<path fill="#a2b6c3" opacity="1.00" d=" M 429.11 173.15 C 430.16 173.52 432.06 172.67 432.60 173.98 C 440.49 191.34 448.85 208.50 456.50 225.96 C 453.76 226.02 451.03 226.05 448.30 225.87 C 445.96 220.19 443.06 214.77 440.71 209.10 C 433.93 208.93 427.14 208.93 420.36 209.11 C 418.00 214.78 415.06 220.20 412.69 225.87 C 409.96 226.05 407.23 226.02 404.51 225.97 C 412.39 208.22 420.86 190.73 429.11 173.15 M 430.38 187.68 C 428.19 192.86 425.71 197.91 423.30 203.00 C 428.13 202.98 432.96 203.06 437.80 202.94 C 435.20 197.92 433.35 192.51 430.38 187.68 Z" />
<path fill="#a2b6c3" opacity="1.00" d=" M 500.05 173.17 C 514.04 181.17 523.25 198.52 535.60 209.98 C 535.40 197.75 535.68 185.51 535.46 173.28 C 537.88 173.27 540.30 173.26 542.73 173.27 C 542.74 190.86 542.71 208.44 542.75 226.03 C 528.70 218.26 519.44 200.90 507.27 189.36 C 507.26 201.57 507.27 213.78 507.27 226.00 C 504.84 226.00 502.42 226.00 500.00 226.00 C 500.03 208.39 499.94 190.78 500.05 173.17 Z" />
<path fill="#a2b6c3" opacity="1.00" d=" M 850.01 173.21 C 851.13 173.26 852.26 173.30 853.41 173.33 C 859.99 186.82 866.47 200.36 873.22 213.77 C 879.66 200.16 886.44 186.72 893.18 173.26 C 893.84 173.24 895.18 173.20 895.85 173.19 C 898.37 190.78 900.95 208.38 903.35 225.99 C 901.07 225.86 898.62 226.35 896.45 225.73 C 894.71 214.46 893.27 203.14 891.53 191.87 C 886.07 203.32 880.29 214.61 874.75 226.02 C 873.58 225.99 872.42 225.96 871.28 225.93 C 865.72 214.63 860.44 203.17 854.55 192.04 C 853.41 203.39 851.66 214.68 850.31 226.01 C 847.84 226.00 845.37 226.00 842.92 226.00 C 845.20 208.39 847.56 190.79 850.01 173.21 Z" />
<path fill="#a2b6c3" opacity="1.00" d=" M 593.56 217.67 C 599.44 214.15 605.29 222.86 599.50 226.49 C 593.61 230.22 587.66 221.30 593.56 217.67 Z" />
</g>
</svg>
